<svg width="200" height="112" viewBox="0 0 200 112" fill="none" xmlns="http://www.w3.org/2000/svg">
<g opacity="0.6" clip-path="url(#clip0_2330_123443)">
<path d="M148.794 33.7216L165.383 5.04092C165.828 4.27116 165.949 3.35704 165.721 2.49821C165.492 1.63938 164.933 0.905629 164.164 0.457205C163.784 0.234707 163.364 0.0896238 162.928 0.0303661C162.492 -0.0288917 162.048 -0.00114469 161.623 0.111998C161.197 0.22514 160.799 0.421427 160.45 0.689479C160.101 0.957531 159.809 1.29201 159.591 1.67354L142.78 30.7237C129.955 24.8797 115.521 21.6202 99.997 21.6202C84.4726 21.6202 70.0429 24.8797 57.2183 30.7237L40.4111 1.67354C40.1903 1.29059 39.8957 0.955082 39.5442 0.686383C39.1928 0.417684 38.7915 0.221116 38.3635 0.108028C37.9356 -0.00505972 37.4894 -0.0324279 37.0508 0.0275036C36.6121 0.0874352 36.1897 0.233479 35.808 0.457205C35.4261 0.678025 35.0916 0.971986 34.8239 1.3222C34.5562 1.67241 34.3604 2.07196 34.2479 2.49791C34.1354 2.92385 34.1083 3.36778 34.1683 3.80419C34.2282 4.24061 34.374 4.6609 34.5972 5.04092L51.1883 33.7216C22.5791 49.1924 3.20214 78.0928 0 111.92H200.002C196.8 78.0928 177.423 49.1924 148.794 33.7216ZM54.0822 83.8848C52.4241 83.8848 50.8032 83.3941 49.4245 82.4748C48.0459 81.5555 46.9713 80.2488 46.3368 78.72C45.7022 77.1912 45.5362 75.509 45.8597 73.8861C46.1832 72.2631 46.9816 70.7723 48.1541 69.6023C49.3266 68.4322 50.8204 67.6353 52.4467 67.3125C54.0729 66.9897 55.7586 67.1554 57.2905 67.7886C58.8224 68.4219 60.1317 69.4942 61.0529 70.8701C61.9741 72.246 62.4658 73.8635 62.4658 75.5183C62.4653 77.7371 61.5819 79.8648 60.0098 81.4337C58.4376 83.0026 56.3055 83.8843 54.0822 83.8848ZM145.898 83.8848C144.24 83.8852 142.618 83.3949 141.239 82.4758C139.861 81.5567 138.786 80.2502 138.151 78.7214C137.516 77.1927 137.35 75.5104 137.673 73.8873C137.996 72.2642 138.795 70.7732 139.967 69.603C141.139 68.4327 142.633 67.6357 144.259 67.3127C145.886 66.9897 147.572 67.1553 149.104 67.7884C150.636 68.4216 151.945 69.494 152.866 70.8699C153.788 72.2458 154.279 73.8635 154.279 75.5183C154.279 77.7367 153.396 79.8642 151.824 81.433C150.252 83.0019 148.121 83.8838 145.898 83.8848Z" fill="#212120"/>
</g>
<defs>
<clipPath id="clip0_2330_123443">
<rect width="200" height="111.921" fill="white"/>
</clipPath>
</defs>
</svg>
