<svg width="157" height="49" viewBox="0 0 157 49" fill="none" xmlns="http://www.w3.org/2000/svg">
<path d="M4.90625 0.5H152.094C154.528 0.5 156.5 2.47055 156.5 4.9V44.1C156.5 46.5295 154.528 48.5 152.094 48.5H4.90625C2.47214 48.5 0.5 46.5295 0.5 44.1V4.9C0.5 2.47055 2.47214 0.5 4.90625 0.5Z" fill="black" stroke="#D4D2CF"/>
<path d="M33.0932 24.2427C33.1088 23.0804 33.4183 21.9409 33.993 20.93C34.5677 19.9191 35.3889 19.0697 36.3804 18.4607C35.7516 17.5635 34.922 16.8251 33.9574 16.3041C32.9929 15.7831 31.92 15.4939 30.824 15.4595C28.4813 15.2145 26.2121 16.856 25.0224 16.856C23.8326 16.856 21.9682 15.484 19.9935 15.5207C18.7153 15.5638 17.4699 15.9361 16.3782 16.6014C15.2864 17.2668 14.3854 18.2027 13.7625 19.3182C11.0641 23.9855 13.0757 30.8333 15.6514 34.594C16.9516 36.4438 18.4603 38.5018 20.435 38.4283C22.4098 38.3548 23.0844 37.2033 25.4149 37.2033C27.7454 37.2033 28.4077 38.4283 30.4193 38.4283C32.4308 38.4283 33.8046 36.5785 35.0557 34.7533C35.9926 33.412 36.7128 31.9322 37.1899 30.3678C35.9808 29.8607 34.9477 29.0096 34.2192 27.9206C33.4908 26.8315 33.0992 25.5525 33.0932 24.2427Z" fill="#B5B3B1"/>
<path d="M29.291 12.9361C30.4348 11.5707 30.9943 9.81044 30.8487 8.03613C29.119 8.22149 27.5216 9.04756 26.3718 10.3514C25.8113 10.9885 25.3819 11.7297 25.1083 12.5327C24.8347 13.3356 24.7222 14.1845 24.7773 15.0309C25.6389 15.0433 26.4923 14.8614 27.2739 14.4987C28.0554 14.136 28.7449 13.6019 29.291 12.9361Z" fill="#B5B3B1"/>
<path d="M61.0702 38.1096H58.3717L56.8876 33.4669H51.7483L50.3377 38.1096H47.7129L52.8031 22.3071H55.9554L61.0702 38.1096ZM56.446 31.5191L55.1091 27.3909C54.9619 26.9744 54.692 25.9821 54.3118 24.4141C54.1523 25.0879 53.907 26.0801 53.5513 27.3909L52.2389 31.5191H56.446Z" fill="#B5B3B1"/>
<path d="M74.1697 32.2786C74.2646 33.9555 73.7014 35.6034 72.5997 36.8723C72.1558 37.3613 71.6115 37.749 71.0041 38.009C70.3966 38.2691 69.7402 38.3953 69.0795 38.3791C68.442 38.4306 67.8026 38.3058 67.2314 38.0184C66.6602 37.731 66.1793 37.2921 65.8413 36.7498V42.7646H63.2778V30.5146C63.2778 29.2896 63.2778 28.0646 63.1797 26.7661H65.3998L65.547 28.5668C65.9336 27.9815 66.4512 27.494 67.059 27.1429C67.6668 26.7919 68.3481 26.5868 69.0489 26.5441C69.7497 26.5013 70.4509 26.6219 71.0969 26.8965C71.743 27.171 72.3163 27.5919 72.7714 28.1258C73.7241 29.2961 74.2208 30.7712 74.1697 32.2786ZM71.5939 32.3643C71.6303 31.3932 71.3647 30.4346 70.8334 29.6203C70.6179 29.321 70.3427 29.0695 70.0251 28.8816C69.7075 28.6937 69.3543 28.5735 68.9879 28.5287C68.6215 28.4838 68.2498 28.5152 67.8961 28.6208C67.5424 28.7265 67.2145 28.9041 66.933 29.1426C66.4215 29.5552 66.0666 30.1301 65.9272 30.7718C65.8625 31.0244 65.8255 31.2831 65.8168 31.5436V33.4301C65.8076 34.2062 66.0975 34.9561 66.6263 35.5248C66.8698 35.81 67.1755 36.0357 67.52 36.1843C67.8645 36.333 68.2385 36.4007 68.6134 36.3823C69.041 36.3902 69.464 36.2926 69.8448 36.0981C70.2257 35.9037 70.5526 35.6184 70.7966 35.2676C71.3609 34.4074 71.6398 33.3917 71.5939 32.3643Z" fill="#B5B3B1"/>
<path d="M87.3067 32.2786C87.3983 33.9572 86.8306 35.6053 85.7245 36.8723C85.2848 37.3601 84.7448 37.7472 84.1415 38.0073C83.5382 38.2673 82.8857 38.3942 82.2288 38.3791C81.5913 38.4306 80.9519 38.3058 80.3807 38.0184C79.8095 37.731 79.3286 37.2921 78.9906 36.7498V42.7646H76.4394V30.5146C76.4394 29.2896 76.4394 28.0646 76.3535 26.7661H78.5736L78.7208 28.5668C79.1074 27.9815 79.6251 27.494 80.2329 27.1429C80.8407 26.7919 81.5219 26.5868 82.2227 26.5441C82.9235 26.5013 83.6247 26.6219 84.2708 26.8965C84.9169 27.171 85.4901 27.5919 85.9452 28.1258C86.8799 29.3039 87.3627 30.7766 87.3067 32.2786ZM84.7187 32.3643C84.7524 31.3952 84.4916 30.4386 83.9705 29.6203C83.7539 29.3298 83.4807 29.0861 83.1673 28.9039C82.8539 28.7217 82.5068 28.6047 82.1469 28.5601C81.787 28.5154 81.4218 28.544 81.0733 28.6442C80.7248 28.7443 80.4002 28.9138 80.1191 29.1426C79.6067 29.5524 79.255 30.1291 79.1255 30.7718C79.052 31.0228 79.0107 31.2822 79.0029 31.5436V33.4301C78.9864 34.1985 79.2576 34.9455 79.7634 35.5248C80.0103 35.8059 80.3166 36.0286 80.6603 36.1769C81.0039 36.3252 81.3763 36.3953 81.7504 36.3823C82.176 36.3882 82.5965 36.2896 82.975 36.0952C83.3535 35.9009 83.6785 35.6167 83.9214 35.2676C84.4856 34.4074 84.7645 33.3917 84.7187 32.3643Z" fill="#B5B3B1"/>
<path d="M101.977 33.6874C101.996 34.3032 101.882 34.916 101.64 35.483C101.399 36.05 101.036 36.5575 100.578 36.9704C99.3614 37.9517 97.8222 38.4451 96.2608 38.3546C94.8282 38.4235 93.4059 38.0791 92.1641 37.3624L92.7405 35.2676C93.8497 35.9378 95.124 36.2857 96.4202 36.2721C97.2156 36.323 98.0042 36.098 98.6526 35.6351C98.911 35.4292 99.1177 35.1657 99.2561 34.8658C99.3945 34.5659 99.4609 34.2379 99.4498 33.9079C99.4596 33.6062 99.4069 33.3059 99.295 33.0255C99.1832 32.7452 99.0146 32.4909 98.7998 32.2786C98.1641 31.7247 97.4209 31.3076 96.6165 31.0536C93.8445 30.0246 92.4584 28.5138 92.4584 26.5211C92.4406 25.914 92.563 25.3108 92.8161 24.7585C93.0692 24.2062 93.4463 23.7195 93.918 23.3361C95.0166 22.4682 96.3955 22.0324 97.794 22.1111C99.0309 22.0664 100.26 22.3228 101.376 22.8584L100.75 24.9286C99.8204 24.4271 98.7768 24.1739 97.7204 24.1936C96.9635 24.1487 96.2167 24.3842 95.623 24.8551C95.4175 25.0482 95.2556 25.2828 95.148 25.5432C95.0403 25.8037 94.9895 26.084 94.9987 26.3656C95.008 26.6472 95.0772 26.9236 95.2018 27.1765C95.3263 27.4293 95.5034 27.6527 95.7211 27.8319C96.4179 28.3627 97.1968 28.7765 98.027 29.0569C99.1394 29.4535 100.146 30.0988 100.971 30.9434C101.638 31.7002 101.997 32.6792 101.977 33.6874Z" fill="#B5B3B1"/>
<path d="M110.366 28.6158H107.57V34.1528C107.57 35.5616 108.06 36.2598 109.041 36.2598C109.421 36.2678 109.799 36.2308 110.17 36.1496L110.244 38.0728C109.606 38.2797 108.938 38.375 108.269 38.3546C107.827 38.3853 107.384 38.3189 106.971 38.1602C106.558 38.0015 106.184 37.7542 105.877 37.4358C105.227 36.5491 104.926 35.4549 105.031 34.3611V28.6158H103.424V26.6926H105.092V24.6101L107.545 23.8506V26.6926H110.342L110.366 28.6158Z" fill="#B5B3B1"/>
<path d="M122.975 32.3278C123.037 33.9039 122.498 35.4448 121.467 36.6398C120.939 37.2165 120.291 37.6709 119.568 37.9714C118.846 38.2719 118.066 38.4111 117.284 38.3793C116.528 38.4172 115.773 38.2875 115.073 37.9994C114.374 37.7114 113.746 37.2721 113.237 36.7133C112.231 35.5484 111.701 34.0485 111.752 32.5115C111.68 30.922 112.23 29.3667 113.286 28.175C113.812 27.6087 114.455 27.164 115.171 26.872C115.887 26.58 116.659 26.4478 117.431 26.4845C118.185 26.4535 118.936 26.5864 119.633 26.874C120.329 27.1617 120.955 27.5973 121.467 28.1505C122.486 29.2991 123.026 30.7939 122.975 32.3278ZM120.338 32.4013C120.366 31.4542 120.133 30.5176 119.664 29.694C119.437 29.2828 119.104 28.9398 118.7 28.701C118.295 28.4621 117.834 28.3361 117.364 28.3361C116.894 28.3361 116.433 28.4621 116.028 28.701C115.624 28.9398 115.291 29.2828 115.064 29.694C114.582 30.5307 114.344 31.4855 114.377 32.4503C114.345 33.3994 114.584 34.3381 115.064 35.1575C115.284 35.5729 115.613 35.9204 116.017 36.1628C116.42 36.4053 116.881 36.5334 117.352 36.5334C117.822 36.5334 118.284 36.4053 118.687 36.1628C119.09 35.9204 119.419 35.5729 119.639 35.1575C120.125 34.3218 120.367 33.3671 120.338 32.4013Z" fill="#B5B3B1"/>
<path d="M131.217 28.9467C130.954 28.8969 130.687 28.8722 130.42 28.8732C130.017 28.8597 129.617 28.9454 129.256 29.1227C128.894 29.3 128.582 29.5635 128.347 29.8899C127.903 30.5516 127.68 31.336 127.709 32.1317V38.1097H125.182V30.3064C125.182 28.9957 125.182 27.7952 125.084 26.7172H127.292L127.39 28.8977C127.621 28.1944 128.047 27.5703 128.616 27.0969C129.142 26.6979 129.784 26.4826 130.444 26.4844C130.656 26.4648 130.87 26.4648 131.082 26.4844L131.217 28.9467Z" fill="#B5B3B1"/>
<path d="M142.55 31.8744C142.557 32.2601 142.529 32.6456 142.464 33.0259H134.86C134.841 33.5114 134.931 33.9949 135.122 34.4417C135.313 34.8886 135.6 35.2877 135.964 35.6107C136.661 36.1572 137.53 36.4393 138.417 36.4069C139.467 36.4191 140.511 36.2364 141.495 35.8679L141.9 37.6197C140.688 38.1211 139.385 38.3631 138.073 38.3302C137.307 38.3711 136.541 38.2529 135.823 37.983C135.106 37.7132 134.452 37.2974 133.903 36.7622C133.384 36.2021 132.982 35.5441 132.721 34.8268C132.459 34.1094 132.344 33.3473 132.382 32.5849C132.328 31.0302 132.828 29.5068 133.793 28.2852C134.268 27.6947 134.875 27.2225 135.565 26.9058C136.254 26.589 137.008 26.4364 137.767 26.4599C138.484 26.4293 139.198 26.5806 139.842 26.8998C140.485 27.2189 141.037 27.6955 141.446 28.2852C142.181 29.3367 142.568 30.5921 142.55 31.8744ZM140.097 31.2252C140.137 30.5411 139.966 29.8611 139.606 29.2774C139.397 28.9344 139.098 28.6549 138.741 28.4693C138.385 28.2836 137.984 28.1988 137.583 28.2239C137.189 28.2218 136.801 28.3142 136.451 28.4933C136.101 28.6724 135.799 28.9329 135.571 29.2529C135.134 29.8232 134.874 30.5089 134.823 31.2252H140.097Z" fill="#B5B3B1"/>
<path d="M55.5885 12.5807C55.6339 13.1656 55.5472 13.7532 55.335 14.3002C55.1227 14.8472 54.7902 15.3396 54.362 15.7412C53.4085 16.4481 52.2354 16.7953 51.0502 16.7212C50.4396 16.7246 49.8294 16.6918 49.2227 16.6232V8.99145C49.9322 8.87516 50.6501 8.8178 51.3691 8.81995C52.4692 8.74289 53.5607 9.05994 54.4478 9.7142C54.8415 10.0756 55.1484 10.5211 55.3459 11.0173C55.5434 11.5136 55.6263 12.048 55.5885 12.5807ZM54.2761 12.5807C54.3191 12.2003 54.2756 11.8151 54.149 11.4537C54.0225 11.0924 53.816 10.7641 53.5449 10.4934C53.2739 10.2227 52.9452 10.0165 52.5834 9.89009C52.2216 9.76367 51.8359 9.7203 51.455 9.7632C51.1179 9.76197 50.7813 9.79067 50.4492 9.84895V15.6677C50.731 15.6869 51.0138 15.6869 51.2955 15.6677C51.6983 15.6904 52.1015 15.6316 52.4809 15.4948C52.8603 15.3579 53.2081 15.1459 53.5034 14.8714C54.0476 14.2501 54.3291 13.442 54.2884 12.6174L54.2761 12.5807Z" fill="#B5B3B1"/>
<path d="M62.5671 13.8055C62.5977 14.5793 62.3349 15.3361 61.8312 15.9248C61.5717 16.2066 61.2543 16.4291 60.9008 16.5771C60.5473 16.7251 60.1659 16.7951 59.7828 16.7823C59.4138 16.7964 59.0461 16.7303 58.7051 16.5886C58.3642 16.4469 58.0581 16.2329 57.808 15.9615C57.3182 15.3849 57.0603 14.6471 57.0844 13.8913C57.054 13.1117 57.3214 12.3498 57.8326 11.7598C58.0925 11.4843 58.4091 11.2683 58.7606 11.1266C59.112 10.9849 59.4901 10.9209 59.8687 10.939C60.2385 10.9241 60.6072 10.9885 60.95 11.128C61.2928 11.2674 61.6016 11.4787 61.8557 11.7475C62.3435 12.3198 62.5975 13.0546 62.5671 13.8055ZM61.3405 13.8055C61.3538 13.3425 61.2392 12.8848 61.0094 12.4825C60.9056 12.2768 60.7458 12.1044 60.5484 11.9852C60.3509 11.8661 60.1238 11.8049 59.8932 11.8088C59.6564 11.7978 59.4214 11.8556 59.2168 11.9752C59.0122 12.0947 58.8467 12.271 58.7402 12.4825C58.5232 12.8964 58.4098 13.3567 58.4098 13.8239C58.4098 14.2911 58.5232 14.7514 58.7402 15.1653C58.8475 15.3726 59.0119 15.545 59.214 15.6622C59.416 15.7794 59.6474 15.8365 59.8809 15.8268C60.1116 15.8307 60.3387 15.7695 60.5361 15.6504C60.7335 15.5312 60.8933 15.3588 60.9971 15.153C61.2072 14.7493 61.3046 14.2966 61.2792 13.8423L61.3405 13.8055Z" fill="#B5B3B1"/>
<path d="M71.913 11.0493L70.1591 16.6476H69.0797L68.356 14.1976C68.172 13.5851 68.0248 12.9726 67.9022 12.3846C67.7971 12.9984 67.6496 13.6041 67.4606 14.1976L66.6879 16.6476H65.4L63.7441 11.0493H65.032L65.6576 13.7076C65.817 14.3446 65.9397 14.9326 66.0378 15.5083C66.1359 15.0428 66.2831 14.4426 66.5039 13.7198L67.3012 11.0493H68.307L69.0797 13.6708C69.2596 14.3078 69.4068 14.9203 69.5212 15.5083C69.614 14.8893 69.7409 14.2758 69.9015 13.6708L70.5884 11.0493H71.913Z" fill="#B5B3B1"/>
<path d="M78.3776 16.6476H77.151V13.4381C77.151 12.4581 76.7708 11.9558 76.0103 11.9558C75.8389 11.951 75.6688 11.9862 75.5134 12.0585C75.358 12.1308 75.2215 12.2382 75.1149 12.3723C74.8855 12.6371 74.7631 12.9778 74.7715 13.3278V16.6476H73.5449V12.6541C73.5449 12.1641 73.5449 11.6251 73.5449 11.0493H74.6488V11.9191C74.8054 11.6435 75.029 11.4118 75.2989 11.2453C75.6386 11.0391 76.0298 10.9329 76.4273 10.9391C76.667 10.9289 76.9062 10.9682 77.1299 11.0546C77.3537 11.1411 77.5571 11.2727 77.7275 11.4413C77.9575 11.6883 78.134 11.9801 78.2459 12.2984C78.3577 12.6167 78.4026 12.9547 78.3776 13.2911V16.6476Z" fill="#B5B3B1"/>
<path d="M81.8125 16.6478H80.5859V8.47705H81.8125V16.6478Z" fill="#B5B3B1"/>
<path d="M89.1595 13.8055C89.1917 14.5817 88.9238 15.3405 88.4112 15.9248C88.1528 16.2079 87.8356 16.4313 87.4819 16.5794C87.1281 16.7275 86.7462 16.7968 86.3629 16.7823C85.9951 16.8014 85.6276 16.7376 85.2879 16.5955C84.9482 16.4534 84.6448 16.2367 84.4004 15.9615C83.9008 15.3898 83.6377 14.6497 83.6644 13.8913C83.6341 13.1117 83.9015 12.3498 84.4126 11.7598C84.6736 11.4856 84.9903 11.2704 85.3416 11.1288C85.6928 10.9873 86.0703 10.9225 86.4487 10.939C86.8187 10.9233 87.1877 10.9873 87.5306 11.1268C87.8735 11.2663 88.1822 11.4781 88.4358 11.7475C88.928 12.318 89.1864 13.053 89.1595 13.8055ZM87.8593 13.8055C87.851 13.3504 87.7196 12.9059 87.4791 12.5193C87.3848 12.2983 87.2276 12.1099 87.0269 11.9774C86.8263 11.845 86.5911 11.7744 86.3506 11.7744C86.1101 11.7744 85.8749 11.845 85.6743 11.9774C85.4737 12.1099 85.3164 12.2983 85.2222 12.5193C84.9967 12.9305 84.8786 13.3918 84.8786 13.8607C84.8786 14.3295 84.9967 14.7908 85.2222 15.202C85.3286 15.4074 85.491 15.5786 85.6907 15.6956C85.8904 15.8127 86.1192 15.8709 86.3506 15.8635C86.5813 15.8674 86.8084 15.8063 87.0058 15.6871C87.2032 15.5679 87.363 15.3956 87.4668 15.1898C87.7219 14.7864 87.858 14.3194 87.8593 13.8423V13.8055Z" fill="#B5B3B1"/>
<path d="M95.1934 16.6476H94.0649L93.9791 16.0106C93.7898 16.2643 93.5408 16.4675 93.2541 16.6021C92.9674 16.7368 92.6519 16.7987 92.3355 16.7824C92.1066 16.7852 91.8796 16.741 91.6686 16.6525C91.4576 16.564 91.2671 16.4331 91.1089 16.2679C90.9633 16.1167 90.8493 15.9382 90.7734 15.7426C90.6976 15.547 90.6616 15.3383 90.6673 15.1286C90.655 14.8141 90.7284 14.5022 90.8796 14.2261C91.0308 13.9499 91.2542 13.7199 91.5259 13.5606C92.2771 13.1564 93.1279 12.9737 93.9791 13.0339V12.9236C93.9791 12.1886 93.5988 11.8211 92.7525 11.8211C92.2351 11.8103 91.7265 11.9555 91.2929 12.2376L91.0476 11.4169C91.6336 11.0845 92.2997 10.9192 92.9733 10.9391C94.4329 10.9391 95.1688 11.7109 95.1688 13.2544V15.3124C95.1384 15.7573 95.1466 16.2041 95.1934 16.6476ZM93.8932 14.7244V13.8669C92.5195 13.8669 91.8326 14.2099 91.8326 14.9939C91.8219 15.1125 91.8373 15.232 91.8775 15.3441C91.9177 15.4562 91.9819 15.5583 92.0656 15.6431C92.2338 15.7931 92.4536 15.8722 92.6789 15.8636C92.9541 15.8655 93.222 15.7749 93.4394 15.6064C93.6638 15.4506 93.8179 15.213 93.8687 14.9449C93.8843 14.8724 93.8925 14.7985 93.8932 14.7244Z" fill="#B5B3B1"/>
<path d="M102.271 16.6478H101.167V15.7535C101.002 16.0843 100.743 16.3588 100.422 16.542C100.101 16.7252 99.7324 16.8089 99.3636 16.7825C99.0413 16.786 98.7226 16.7161 98.4314 16.5781C98.1402 16.4401 97.8844 16.2377 97.6832 15.9863C97.2484 15.3575 97.0206 14.6091 97.0316 13.845C97.0426 13.081 97.2918 12.3393 97.7445 11.7233C97.9562 11.4723 98.2213 11.2717 98.5205 11.1361C98.8197 11.0004 99.1455 10.9332 99.474 10.9393C99.7822 10.9079 100.093 10.9623 100.372 11.0963C100.652 11.2303 100.888 11.4388 101.056 11.6988V8.47705H102.283V15.141C102.197 15.6678 102.197 16.1945 102.271 16.6478ZM101.044 14.2835V13.3526C101.059 13.2223 101.059 13.0908 101.044 12.9606C100.977 12.6694 100.818 12.4075 100.59 12.2133C100.36 12.0107 100.063 11.9014 99.7561 11.907C99.5417 11.8955 99.3281 11.9403 99.1365 12.0371C98.945 12.1338 98.7822 12.279 98.6645 12.4583C98.4085 12.8748 98.273 13.3539 98.273 13.8425C98.273 14.3312 98.4085 14.8103 98.6645 15.2268C98.7864 15.4019 98.95 15.5439 99.1406 15.6401C99.3311 15.7364 99.5426 15.7837 99.7561 15.778C99.9465 15.7828 100.135 15.7433 100.308 15.6625C100.48 15.5817 100.632 15.4619 100.75 15.3125C100.94 15.0052 101.018 14.6417 100.97 14.2835H101.044Z" fill="#B5B3B1"/>
<path d="M112.93 13.8055C112.961 14.5793 112.698 15.3361 112.195 15.9248C111.934 16.2082 111.614 16.4317 111.259 16.5797C110.903 16.7278 110.519 16.7969 110.134 16.7823C109.767 16.7962 109.401 16.73 109.062 16.5883C108.723 16.4465 108.419 16.2326 108.171 15.9615C107.672 15.3898 107.409 14.6497 107.435 13.8913C107.41 13.1103 107.681 12.3486 108.196 11.7598C108.734 11.236 109.456 10.9429 110.207 10.9429C110.959 10.9429 111.681 11.236 112.219 11.7598C112.704 12.3289 112.958 13.0588 112.93 13.8055ZM111.704 13.8055C111.717 13.3425 111.603 12.8848 111.373 12.4825C111.263 12.2777 111.099 12.1066 110.899 11.9873C110.699 11.868 110.471 11.805 110.238 11.805C110.005 11.805 109.777 11.868 109.577 11.9873C109.377 12.1066 109.214 12.2777 109.104 12.4825C108.887 12.8964 108.773 13.3567 108.773 13.8239C108.773 14.2911 108.887 14.7514 109.104 15.1653C109.198 15.3863 109.355 15.5747 109.556 15.7071C109.756 15.8396 109.992 15.9102 110.232 15.9102C110.473 15.9102 110.708 15.8396 110.908 15.7071C111.109 15.5747 111.266 15.3863 111.36 15.1653C111.568 14.7562 111.665 14.3003 111.643 13.8423L111.704 13.8055Z" fill="#B5B3B1"/>
<path d="M119.639 16.6477H118.413V13.4382C118.413 12.4582 118.032 11.9559 117.284 11.9559C117.111 11.9502 116.939 11.9848 116.781 12.0571C116.624 12.1294 116.485 12.2374 116.377 12.3724C116.152 12.6401 116.03 12.9788 116.033 13.3279V16.6477H114.807V12.6542C114.807 12.1642 114.807 11.6252 114.807 11.0494H115.898L115.96 11.9192C116.111 11.6441 116.331 11.4123 116.597 11.2454C116.941 11.0388 117.337 10.9327 117.738 10.9392C117.978 10.9304 118.216 10.9704 118.44 11.0568C118.663 11.1431 118.867 11.274 119.038 11.4414C119.268 11.6884 119.445 11.9802 119.557 12.2985C119.668 12.6168 119.713 12.9548 119.688 13.2912L119.639 16.6477Z" fill="#B5B3B1"/>
<path d="M128.016 11.9925H126.642V14.712C126.642 15.4103 126.887 15.7533 127.378 15.7533C127.573 15.7493 127.767 15.7205 127.955 15.6675V16.6108C127.643 16.7187 127.315 16.7686 126.986 16.7578C126.772 16.7681 126.559 16.733 126.36 16.6548C126.162 16.5767 125.982 16.4573 125.833 16.3045C125.513 15.8705 125.364 15.3342 125.416 14.7978V11.9925H124.594V11.0615H125.416V10.0325L126.642 9.66504V11.0615H128.016V11.9925Z" fill="#B5B3B1"/>
<path d="M134.615 16.6478H133.388V13.4628C133.388 12.4583 133.008 11.9561 132.26 11.9561C131.986 11.9452 131.717 12.0261 131.494 12.1859C131.272 12.3458 131.11 12.5754 131.033 12.838C131.012 12.9843 131.012 13.1328 131.033 13.279V16.6478H129.807V8.47705H131.033V11.858C131.206 11.5692 131.453 11.3317 131.748 11.1701C132.044 11.0086 132.377 10.9289 132.714 10.9393C133.173 10.9387 133.614 11.1192 133.94 11.4415C134.164 11.697 134.334 11.9942 134.441 12.316C134.549 12.6377 134.591 12.9776 134.566 13.3158L134.615 16.6478Z" fill="#B5B3B1"/>
<path d="M141.448 13.585C141.462 13.7726 141.462 13.961 141.448 14.1485H137.768C137.767 14.3791 137.814 14.6074 137.907 14.8184C138 15.0295 138.137 15.2186 138.308 15.3735C138.658 15.6436 139.092 15.7824 139.534 15.7655C140.05 15.7681 140.561 15.6768 141.043 15.496L141.239 16.3535C140.645 16.6014 140.006 16.7224 139.363 16.7088C138.986 16.7302 138.609 16.6726 138.257 16.5397C137.904 16.4067 137.583 16.2014 137.314 15.937C137.058 15.6612 136.86 15.337 136.732 14.9836C136.603 14.6301 136.547 14.2546 136.566 13.879C136.539 13.1157 136.787 12.3679 137.265 11.772C137.496 11.4793 137.793 11.2456 138.132 11.0901C138.472 10.9347 138.843 10.8619 139.216 10.8778C139.573 10.8563 139.931 10.9274 140.253 11.084C140.575 11.2406 140.851 11.4776 141.055 11.772C141.373 12.3204 141.51 12.9545 141.448 13.585ZM140.221 13.2175C140.246 12.8825 140.164 12.5483 139.988 12.262C139.886 12.0924 139.74 11.9538 139.565 11.861C139.39 11.7682 139.193 11.7247 138.995 11.7353C138.8 11.7362 138.609 11.7833 138.436 11.8727C138.263 11.9622 138.114 12.0914 138.001 12.2498C137.788 12.5301 137.66 12.8662 137.633 13.2175H140.221Z" fill="#B5B3B1"/>
</svg>
