<svg width="156" height="49" viewBox="0 0 156 49" fill="none" xmlns="http://www.w3.org/2000/svg">
<path d="M4.875 0.5H151.125C153.539 0.5 155.5 2.46753 155.5 4.9V44.1C155.5 46.5325 153.539 48.5 151.125 48.5H4.875C2.46116 48.5 0.5 46.5325 0.5 44.1V4.9C0.5 2.46753 2.46116 0.5 4.875 0.5Z" fill="black" stroke="#D4D2CF"/>
<path fill-rule="evenodd" clip-rule="evenodd" d="M11.9062 24.01V11.123C11.907 10.784 12.0315 10.457 12.2561 10.2041C12.4808 9.95122 12.7899 9.78999 13.125 9.75098C13.5342 9.74992 13.9354 9.86453 14.2828 10.0817L37.8047 23.0055C38.0239 23.0656 38.2173 23.1965 38.3552 23.378C38.4931 23.5596 38.5678 23.7816 38.5678 24.01C38.5678 24.2384 38.4931 24.4604 38.3552 24.6419C38.2173 24.8234 38.0239 24.9543 37.8047 25.0145L14.3316 37.975C13.9841 38.1922 13.5829 38.3068 13.1738 38.3057C12.8408 38.267 12.5333 38.1075 12.3089 37.8572C12.0845 37.6069 11.9587 37.2829 11.955 36.946L11.9062 24.01Z" fill="#B5B3B1"/>
<g clip-path="url(#clip0_2455_123453)">
<path fill-rule="evenodd" clip-rule="evenodd" d="M137.507 42.1526L139.55 37.2419L135.926 28.7251H137.993L140.571 34.7927L143.113 28.7251H145.18L139.574 42.1526H137.507Z" fill="#B5B3B1"/>
<path fill-rule="evenodd" clip-rule="evenodd" d="M134.101 29.6851C133.682 29.2765 133.186 28.9571 132.643 28.7457C132.1 28.5343 131.52 28.4352 130.939 28.4543C130.125 28.3981 129.314 28.6065 128.625 29.0493C127.936 29.4921 127.404 30.146 127.108 30.9158L128.969 31.6789C129.125 31.2737 129.403 30.928 129.762 30.6897C130.122 30.4515 130.546 30.3326 130.975 30.3497C131.255 30.3289 131.536 30.3677 131.8 30.4636C132.064 30.5595 132.305 30.7102 132.508 30.9062C132.711 31.1022 132.87 31.339 132.977 31.6014C133.084 31.8638 133.135 32.146 133.128 32.4296C132.449 32.0734 131.691 31.8996 130.927 31.925C130.308 31.8854 129.688 31.9741 129.105 32.1858C128.521 32.3974 127.987 32.7275 127.534 33.1558C127.034 33.6998 126.764 34.4194 126.78 35.1619C126.785 36.0147 127.111 36.8335 127.692 37.4511C128.414 38.0809 129.341 38.4184 130.294 38.3988C130.88 38.4143 131.462 38.2965 131.997 38.0542C132.422 37.8342 132.799 37.5285 133.104 37.1557V38.0788H135.134V32.9342C135.183 32.3504 135.117 31.7626 134.939 31.2049C134.762 30.6472 134.477 30.1306 134.101 29.6851ZM130.562 36.5403C130.36 36.5714 130.153 36.5602 129.956 36.5073C129.758 36.4545 129.573 36.3612 129.412 36.2331C129.252 36.1051 129.119 35.9451 129.021 35.7629C128.924 35.5808 128.865 35.3804 128.847 35.1742C128.847 34.3619 129.674 33.6112 131.134 33.6112C131.812 33.5941 132.481 33.7689 133.067 34.1158C133.025 34.7637 132.744 35.3721 132.28 35.8209C131.816 36.2697 131.203 36.5264 130.562 36.5403Z" fill="#B5B3B1"/>
<path fill-rule="evenodd" clip-rule="evenodd" d="M67.9589 27.8513C66.9467 27.8416 65.9545 28.1364 65.1082 28.6984C64.2619 29.2605 63.5997 30.0643 63.2056 31.008C62.8116 31.9516 62.7035 32.9924 62.895 33.9984C63.0866 35.0043 63.5691 35.93 64.2815 36.6578C64.9938 37.3857 65.9037 37.8829 66.8958 38.0864C67.8879 38.2899 68.9173 38.1904 69.8534 37.8007C70.7895 37.4109 71.5901 36.7484 72.1535 35.8973C72.7169 35.0462 73.0177 34.0449 73.0177 33.0205C73.0242 32.344 72.8981 31.6729 72.6467 31.046C72.3954 30.4192 72.0238 29.8489 71.5534 29.3683C71.083 28.8876 70.5231 28.5061 69.9061 28.2457C69.2892 27.9853 68.6273 27.8513 67.9589 27.8513ZM67.9589 36.1343C67.3389 36.1888 66.717 36.0525 66.1749 35.7433C65.6327 35.4341 65.1955 34.9663 64.9205 34.4013C64.6455 33.8362 64.5455 33.2003 64.6337 32.5768C64.7219 31.9533 64.9942 31.3713 65.4148 30.9071C65.8354 30.4429 66.3848 30.1181 66.9909 29.9752C67.597 29.8324 68.2317 29.8782 68.8116 30.1067C69.3916 30.3351 69.8899 30.7355 70.2411 31.2555C70.5924 31.7754 70.7803 32.3906 70.7802 33.0205C70.7981 33.4127 70.7393 33.8046 70.607 34.1737C70.4747 34.5428 70.2716 34.8818 70.0094 35.1712C69.7472 35.4606 69.4311 35.6947 69.0792 35.86C68.7273 36.0252 68.3465 36.1184 67.9589 36.1343Z" fill="#B5B3B1"/>
<path fill-rule="evenodd" clip-rule="evenodd" d="M78.9901 27.8513C77.978 27.8416 76.9857 28.1364 76.1394 28.6984C75.2931 29.2605 74.6309 30.0643 74.2369 31.008C73.8428 31.9516 73.7347 32.9924 73.9263 33.9984C74.1178 35.0043 74.6004 35.93 75.3127 36.6578C76.025 37.3857 76.935 37.8829 77.927 38.0864C78.9191 38.2899 79.9485 38.1904 80.8847 37.8007C81.8208 37.4109 82.6213 36.7484 83.1847 35.8973C83.7481 35.0462 84.049 34.0449 84.049 33.0205C84.0554 32.344 83.9293 31.6729 83.678 31.046C83.4266 30.4192 83.055 29.8489 82.5846 29.3683C82.1142 28.8876 81.5543 28.5061 80.9374 28.2457C80.3204 27.9853 79.6586 27.8513 78.9901 27.8513ZM78.9901 36.1343C78.3701 36.1888 77.7483 36.0525 77.2061 35.7433C76.664 35.4341 76.2267 34.9663 75.9517 34.4013C75.6767 33.8362 75.5768 33.2003 75.665 32.5768C75.7532 31.9533 76.0254 31.3713 76.446 30.9071C76.8666 30.4429 77.416 30.1181 78.0222 29.9752C78.6283 29.8324 79.2629 29.8782 79.8429 30.1067C80.4229 30.3351 80.9211 30.7355 81.2724 31.2555C81.6237 31.7754 81.8116 32.3906 81.8114 33.0205C81.8294 33.4127 81.7705 33.8046 81.6383 34.1737C81.506 34.5428 81.3029 34.8818 81.0407 35.1712C80.7785 35.4606 80.4623 35.6947 80.1104 35.86C79.7585 36.0252 79.3778 36.1184 78.9901 36.1343Z" fill="#B5B3B1"/>
<path fill-rule="evenodd" clip-rule="evenodd" d="M49.2073 35.765C47.8017 34.2634 47.0253 32.2692 47.0413 30.2008C47.0572 28.1324 47.8641 26.1506 49.2926 24.6713C50.7212 23.1921 52.6604 22.3303 54.7033 22.2669C56.7461 22.2036 58.7338 22.9435 60.2493 24.3314L58.7413 25.919C58.2211 25.4038 57.6052 24.9977 56.9293 24.7243C56.2534 24.4508 55.5307 24.3153 54.8028 24.3256C54.0749 24.3359 53.3563 24.4918 52.6882 24.7842C52.02 25.0767 51.4157 25.5 50.9098 26.0298C49.8661 27.1377 49.2838 28.6097 49.2838 30.1405C49.2838 31.6713 49.8661 33.1433 50.9098 34.2512C51.4219 34.7997 52.0371 35.2391 52.7193 35.5435C53.4016 35.848 54.137 36.0113 54.8825 36.0239C55.628 36.0365 56.3685 35.8982 57.0604 35.617C57.7523 35.3358 58.3817 34.9175 58.9116 34.3866C59.5751 33.6156 59.9759 32.649 60.0547 31.6297H54.9229V29.4144H62.1342C62.2291 29.9669 62.2698 30.5276 62.2558 31.0882C62.2618 32.046 62.0749 32.9951 61.7066 33.8774C61.3383 34.7598 60.7962 35.557 60.1135 36.2203C59.4307 36.8837 58.6216 37.3993 57.7354 37.7358C56.8493 38.0722 55.9047 38.2225 54.9594 38.1773C52.802 38.146 50.7422 37.2627 49.2195 35.7158L49.2073 35.765Z" fill="#B5B3B1"/>
<path fill-rule="evenodd" clip-rule="evenodd" d="M104.137 36.1464C103.624 36.153 103.12 36.0073 102.688 35.7273C102.256 35.4474 101.914 35.0454 101.705 34.571L108.454 31.6911C108.156 30.8307 107.716 30.0276 107.153 29.3158C106.735 28.8446 106.225 28.4677 105.654 28.2097C105.083 27.9517 104.464 27.8184 103.839 27.8184C103.214 27.8184 102.596 27.9517 102.025 28.2097C101.454 28.4677 100.943 28.8446 100.525 29.3158C99.6427 30.3384 99.1562 31.6502 99.1562 33.008C99.1562 34.3658 99.6427 35.6776 100.525 36.7002C101.486 37.6638 102.784 38.2043 104.137 38.2043C105.49 38.2043 106.788 37.6638 107.749 36.7002C107.931 36.491 108.187 36.2203 108.381 35.9495L106.618 34.7187C106.371 35.162 106.01 35.5289 105.573 35.7804C105.136 36.0319 104.64 36.1584 104.137 36.1464ZM104.028 29.8327C104.406 29.8241 104.78 29.9191 105.109 30.1075C105.439 30.296 105.712 30.5709 105.9 30.9034L101.389 32.8357C101.355 32.0858 101.612 31.3523 102.105 30.7913C102.598 30.2304 103.288 29.8864 104.028 29.8327Z" fill="#B5B3B1"/>
<path fill-rule="evenodd" clip-rule="evenodd" d="M117.551 24.4915H113.234V38.1036H115.277V32.7375H117.904C118.999 32.7506 120.054 32.324 120.838 31.5511C121.622 30.7782 122.071 29.7222 122.087 28.6145C122.058 28.0421 121.917 27.4812 121.673 26.9639C121.429 26.4467 121.086 25.9833 120.665 25.6003C120.243 25.2173 119.752 24.9222 119.217 24.7319C118.683 24.5416 118.117 24.4599 117.551 24.4915ZM117.904 30.8421H115.314V26.5345H117.746C118.31 26.5133 118.86 26.7199 119.274 27.1088C119.688 27.4977 119.932 28.0371 119.953 28.6083C119.974 29.1796 119.77 29.7358 119.386 30.1547C119.001 30.5737 118.469 30.8209 117.904 30.8421Z" fill="#B5B3B1"/>
<path fill-rule="evenodd" clip-rule="evenodd" d="M123.473 38.1037V24.5039H125.516V38.1037H123.473Z" fill="#B5B3B1"/>
<path fill-rule="evenodd" clip-rule="evenodd" d="M96.0137 37.8821V22.6577H98.2512V37.8821H96.0137Z" fill="#B5B3B1"/>
<path fill-rule="evenodd" clip-rule="evenodd" d="M92.4516 28.1467V29.0205C90.8586 27.2852 88.1589 27.519 86.3713 29.3528C85.4834 30.3535 84.9922 31.6509 84.9922 32.9958C84.9922 34.3408 85.4834 35.6382 86.3713 36.6389C88.0859 38.5219 91.1504 38.7804 92.5489 36.9589V37.7342C92.5817 38.4676 92.3813 39.1922 91.9773 39.8019C91.7301 40.1151 91.4151 40.3667 91.0568 40.5374C90.6984 40.708 90.3061 40.7933 89.91 40.7865C89.5322 40.7832 89.1592 40.6993 88.8156 40.5402C88.4719 40.3812 88.1653 40.1505 87.9157 39.8634C87.674 39.582 87.4734 39.267 87.3198 38.9281L85.3619 39.765C85.7015 40.4629 86.1582 41.0959 86.7118 41.6357C87.5813 42.4318 88.7132 42.8707 89.8857 42.8665C90.8963 42.8874 91.8892 42.5954 92.7313 42.0295C93.3991 41.5014 93.9258 40.8126 94.2635 40.0259C94.6012 39.2391 94.7392 38.3795 94.6649 37.525V28.1467H92.4516ZM89.7376 35.9329C91.2334 35.9329 92.446 34.6329 92.446 33.0292C92.446 31.4255 91.2334 30.1255 89.7376 30.1255C88.2419 30.1255 87.0293 31.4255 87.0293 33.0292C87.0293 34.6329 88.2419 35.9329 89.7376 35.9329Z" fill="#B5B3B1"/>
</g>
<path fill-rule="evenodd" clip-rule="evenodd" d="M139.242 39.5183V39.5062V39.4941H139.23V39.5062L139.242 39.5183Z" fill="#B5B3B1"/>
<path fill-rule="evenodd" clip-rule="evenodd" d="M139.277 39.5062H139.266H139.277H139.266V39.4941H139.277H139.266V39.5183H139.277V39.5062Z" fill="#B5B3B1"/>
<path fill-rule="evenodd" clip-rule="evenodd" d="M139.315 39.4941H139.303V39.5183V39.4941H139.315Z" fill="#B5B3B1"/>
<path fill-rule="evenodd" clip-rule="evenodd" d="M139.326 39.5062H139.314H139.326H139.314V39.4941H139.326H139.314V39.5183H139.326V39.5062Z" fill="#B5B3B1"/>
<path fill-rule="evenodd" clip-rule="evenodd" d="M139.389 39.4941V39.5062L139.377 39.4941V39.5062V39.5183H139.389V39.5062V39.4941Z" fill="#B5B3B1"/>
<path fill-rule="evenodd" clip-rule="evenodd" d="M139.424 39.5064H139.412V39.4819H139.4V39.5187H139.424V39.5064Z" fill="#B5B3B1"/>
<path fill-rule="evenodd" clip-rule="evenodd" d="M139.547 39.5187V39.4819L139.535 39.5064L139.523 39.4819V39.5187V39.4942L139.535 39.5187L139.547 39.4942V39.5187Z" fill="#B5B3B1"/>
<path fill-rule="evenodd" clip-rule="evenodd" d="M139.631 39.4819H139.607H139.619V39.5187V39.4819H139.631Z" fill="#B5B3B1"/>
<path fill-rule="evenodd" clip-rule="evenodd" d="M139.657 39.5064H139.645V39.4942V39.4819H139.657H139.633V39.5187H139.657V39.5064Z" fill="#B5B3B1"/>
<path d="M47.4339 12.3233C47.4201 11.8472 47.504 11.3734 47.6804 10.9313C47.8568 10.4893 48.122 10.0886 48.4593 9.75408C48.7967 9.4196 49.199 9.15859 49.6411 8.98731C50.0833 8.81602 50.5558 8.73815 51.0292 8.75855C51.5711 8.74595 52.1074 8.87062 52.5888 9.12109C53.0701 9.37157 53.481 9.73978 53.7836 10.1918L52.8086 10.7553C52.6069 10.4674 52.3408 10.231 52.0318 10.0651C51.7228 9.89915 51.3794 9.80829 51.0292 9.7998C50.373 9.7998 49.7437 10.0618 49.2798 10.5282C48.8158 10.9945 48.5551 11.627 48.5551 12.2865C48.5551 12.9461 48.8158 13.5786 49.2798 14.0449C49.7437 14.5113 50.373 14.7733 51.0292 14.7733C51.6275 14.7721 52.2044 14.5497 52.6501 14.1486V13.095H50.6026V12.0293H53.8445V14.6998C53.489 15.0936 53.054 15.4066 52.5684 15.6178C52.0829 15.8291 51.5582 15.9337 51.0292 15.9248C50.5531 15.9437 50.0782 15.8635 49.6343 15.6893C49.1904 15.5152 48.7871 15.2508 48.4496 14.9127C48.1121 14.5746 47.8476 14.1701 47.6729 13.7245C47.4981 13.279 47.4167 12.8019 47.4339 12.3233Z" fill="#B5B3B1"/>
<path d="M55.332 15.7536V8.88135H60.012V9.93485H56.5264V11.7111H59.9389V12.7768H56.5264V14.7001H60.012V15.7536H55.332Z" fill="#B5B3B1"/>
<path d="M63.3746 15.7536V9.93485H61.3027V8.88135H66.6531V9.93485H64.5934V15.7536H63.3746Z" fill="#B5B3B1"/>
<path d="M70.7852 15.7536V8.88135H72.0039V15.7536H70.7852Z" fill="#B5B3B1"/>
<path d="M75.3316 15.7536V9.93485H73.2598V8.88135H78.5979V9.93485H76.526V15.7536H75.3316Z" fill="#B5B3B1"/>
<path d="M82.4738 12.3236C82.4882 11.6292 82.7062 10.9544 83.1005 10.384C83.4949 9.81359 84.048 9.37286 84.6905 9.11707C85.333 8.86128 86.0363 8.80181 86.7123 8.94613C87.3883 9.09044 88.0068 9.43212 88.4904 9.92832C88.974 10.4245 89.3011 11.0532 89.4307 11.7354C89.5603 12.4177 89.4867 13.1233 89.219 13.7637C88.9513 14.4041 88.5015 14.9508 87.926 15.3353C87.3505 15.7198 86.6748 15.925 85.9838 15.9251C85.5123 15.9411 85.0426 15.8583 84.6047 15.682C84.1668 15.5057 83.7702 15.2397 83.44 14.901C83.1099 14.5623 82.8535 14.1582 82.6872 13.7145C82.5208 13.2708 82.4481 12.7971 82.4738 12.3236ZM88.2507 12.3236C88.2198 11.8782 88.06 11.4515 87.791 11.096C87.522 10.7406 87.1556 10.472 86.7367 10.3231C86.3178 10.1743 85.8647 10.1518 85.4333 10.2583C85.0018 10.3649 84.6108 10.5959 84.3082 10.9229C84.0056 11.2499 83.8048 11.6587 83.7303 12.0989C83.6558 12.5391 83.711 12.9917 83.889 13.4008C84.067 13.81 84.3602 14.1579 84.7323 14.4018C85.1045 14.6457 85.5395 14.775 85.9838 14.7736C86.2959 14.7727 86.6044 14.7074 86.8903 14.5817C87.1763 14.456 87.4335 14.2726 87.646 14.0429C87.8585 13.8132 88.0219 13.5421 88.1259 13.2464C88.2299 12.9506 88.2723 12.6366 88.2507 12.3236Z" fill="#B5B3B1"/>
<path d="M95.6471 15.7536L92.0762 10.8536V15.7536H90.8574V8.88135H92.0762L95.574 13.6466V8.88135H96.7927V15.7536H95.6471Z" fill="#B5B3B1"/>
<defs>
<clipPath id="clip0_2455_123453">
<rect width="98.2222" height="20.6889" fill="white" transform="translate(46.9453 22.1406)"/>
</clipPath>
</defs>
</svg>
