<svg width="150" height="185" viewBox="0 0 150 185" fill="none" xmlns="http://www.w3.org/2000/svg">
<g opacity="0.6" clip-path="url(#clip0_2331_123445)">
<path d="M125.272 98.18C125.055 74.7916 144.305 63.5575 145.172 63.0079C134.343 47.1217 117.5 44.949 111.487 44.6806C97.1421 43.2237 83.4593 53.1541 76.223 53.1541C68.9868 53.1541 57.7119 44.8979 45.8256 45.128C38.0165 45.3445 30.3974 47.5928 23.7152 51.6525C17.033 55.7123 11.5169 61.4441 7.70768 68.2863C-8.53574 96.5696 3.55447 138.464 19.3775 161.405C27.1233 172.614 36.3471 185.241 48.4628 184.781C60.1325 184.334 64.5405 177.228 78.6436 177.228C92.7467 177.228 96.7089 184.781 109.054 184.551C121.603 184.334 129.565 173.112 137.247 161.865C142.729 153.761 147.02 144.907 149.987 135.576C149.72 135.448 125.514 126.144 125.259 98.18" fill="#212120"/>
<path d="M102.085 29.5103C108.532 21.6886 112.85 10.8251 111.666 0C102.404 0.383416 91.1797 6.19856 84.5295 14.0586C78.5672 20.9729 73.3565 32.028 74.7579 42.6359C85.09 43.4411 95.6514 37.3703 102.085 29.5614" fill="#212120"/>
</g>
<defs>
<clipPath id="clip0_2331_123445">
<rect width="150" height="184.794" fill="white"/>
</clipPath>
</defs>
</svg>
