<svg width="24" height="20" viewBox="0 0 24 20" fill="none" xmlns="http://www.w3.org/2000/svg">
<path fill-rule="evenodd" clip-rule="evenodd" d="M18.1172 2.76964C20.0698 4.5578 23.0769 3.06335 23.0769 0.307693H14.9865L18.1172 2.76964ZM10.2163 1.66393C17.3263 4.27273 20.5724 6.83834 21.7917 8.63513C23.1428 10.6306 22.8545 14.2933 21.8906 15.5286C19 7.60313 6.69121 3.84366 4.56641 3.19468C4.42622 3.15186 4.33036 3.12258 4.28447 3.10654C5.0589 2.57096 5.75095 2.17359 6.34414 1.87125C7.52227 1.26656 8.95581 1.20609 10.2163 1.66393ZM2.6532 5.17975C5.36373 5.82763 16.9309 9.49895 19.0647 15.7877C19.9701 19.0745 15.4019 19.5175 13.919 19.6613C13.7962 19.6732 13.6945 19.683 13.6189 19.6923C13.8496 19.053 13.8578 18.7162 13.8331 18.1719C13.5612 12.5397 6.02282 9.85313 1.59864 9.13614C1.58217 7.84038 1.96938 6.36321 2.6532 5.17975ZM0.92308 19.6923C0.92308 16.9366 3.9302 15.4422 5.88277 17.2303L9.01348 19.6923H0.92308Z" fill="white"/>
</svg>
