<svg width="20" height="20" viewBox="0 0 20 20" fill="none" xmlns="http://www.w3.org/2000/svg">
<path d="M7.35823 2.29169H4.79991C3.82491 2.29169 3.0249 3.08335 3.0249 4.06669V14.7167C3.0249 15.65 3.74158 16.3667 4.64158 16.3667H13.6749C13.6749 16.3667 14.2666 16.3667 14.8499 16.3667C15.3332 16.8084 15.5416 17 16.2332 17.6C16.5166 17.85 16.9666 17.65 16.9666 17.2667V4.06669C16.9666 3.09169 16.1749 2.29169 15.1916 2.29169H7.35823Z" stroke="#B5B3B1" stroke-linecap="round" stroke-linejoin="round"/>
<path d="M11.525 11.6583C10.5333 11.9417 9.49999 11.9167 8.58332 11.675C8.29998 12.0083 7.85 12.5333 7.85 12.5333C6.13333 12.475 5.5 11.3583 5.5 11.3583C5.5 8.85834 6.58332 6.87501 6.58332 6.87501C7.69998 6.03334 8.74999 6.05834 8.74999 6.05834L8.91666 6.45001C9.62499 6.34168 10.3583 6.34167 11.075 6.46667L11.2167 6.05834C11.2167 6.05834 12.2667 6.02501 13.3833 6.87501C13.3833 6.87501 14.5 8.85834 14.5 11.3583C14.5 11.3583 13.8417 12.475 12.125 12.5333C11.925 12.2417 11.725 11.95 11.525 11.6583Z" stroke="#B5B3B1" stroke-linecap="round" stroke-linejoin="round"/>
<path d="M8.66644 10.1583C9.14044 10.1583 9.52477 9.77407 9.52477 9.29998C9.52477 8.82598 9.14044 8.44165 8.66644 8.44165C8.19239 8.44165 7.80811 8.82598 7.80811 9.29998C7.80811 9.77407 8.19239 10.1583 8.66644 10.1583Z" fill="#B5B3B1"/>
<path d="M11.2416 10.1583C11.7156 10.1583 12.1 9.77407 12.1 9.29998C12.1 8.82598 11.7156 8.44165 11.2416 8.44165C10.7676 8.44165 10.3833 8.82598 10.3833 9.29998C10.3833 9.77407 10.7676 10.1583 11.2416 10.1583Z" fill="#B5B3B1"/>
</svg>
