<svg width="20" height="20" viewBox="0 0 20 20" fill="none" xmlns="http://www.w3.org/2000/svg">
<path d="M14.2832 17.7084H5.7165C3.82483 17.7084 2.2915 16.175 2.2915 14.2834V5.71669C2.2915 3.82502 3.82483 2.29169 5.7165 2.29169H14.2832C16.1748 2.29169 17.7082 3.82502 17.7082 5.71669V14.2834C17.7082 16.175 16.1748 17.7084 14.2832 17.7084Z" stroke="#B5B3B1" stroke-linecap="round" stroke-linejoin="round"/>
<path d="M9.99991 12.975C11.643 12.975 12.9749 11.6431 12.9749 10C12.9749 8.35694 11.643 7.02502 9.99991 7.02502C8.35683 7.02502 7.0249 8.35694 7.0249 10C7.0249 11.6431 8.35683 12.975 9.99991 12.975Z" stroke="#B5B3B1" stroke-linecap="round" stroke-linejoin="round"/>
<path d="M14.5833 6.24998C15.0435 6.24998 15.4167 5.87688 15.4167 5.41665C15.4167 4.95641 15.0435 4.58331 14.5833 4.58331C14.1231 4.58331 13.75 4.95641 13.75 5.41665C13.75 5.87688 14.1231 6.24998 14.5833 6.24998Z" fill="#B5B3B1"/>
</svg>
