<svg width="104" height="24" viewBox="0 0 104 24" fill="none" xmlns="http://www.w3.org/2000/svg">
<path fill-rule="evenodd" clip-rule="evenodd" d="M28 0C28 3.41176 24.1993 5.26203 21.7315 3.04813L17.7746 0H28ZM26.3756 10.3101C24.8345 8.08554 20.7318 4.90907 11.7456 1.67913C10.1525 1.11228 8.34064 1.18715 6.85161 1.93581C6.10189 2.31014 5.22721 2.80212 4.24841 3.46522C4.30642 3.48508 4.42757 3.52133 4.60476 3.57435C7.29026 4.37784 22.8472 9.03243 26.5005 18.8449C27.7188 17.3155 28.0833 12.7807 26.3756 10.3101ZM22.9289 19.1658C20.232 11.3797 5.61249 6.83424 2.18668 6.0321C1.32242 7.49734 0.833016 9.32621 0.853842 10.9305C6.44551 11.8182 15.9732 15.1444 16.3168 22.1176C16.3481 22.7914 16.3377 23.2086 16.0461 24C16.1417 23.9885 16.2702 23.9763 16.4254 23.9616C18.2996 23.7836 24.0733 23.2351 22.9289 19.1658ZM6.2685 20.9518C3.80067 18.7379 0 20.5882 0 24H10.2254L6.2685 20.9518ZM51.552 16.744V10.5343H49.7721V8.25174H51.552V4H54.2274V8.25174H57.0338V10.5343H54.2274V16.744C54.2274 17.3147 54.6314 17.7063 55.2102 17.7063H57.1539V19.6755C56.7499 19.8545 55.9964 20 55.2539 20C53.0262 19.9888 51.552 18.6909 51.552 16.744ZM38.6667 15.793H41.1892C41.2765 16.9342 42.3467 17.7174 43.8427 17.7174C45.3387 17.7174 46.3433 17.1244 46.3433 16.2293C46.3433 15.6811 45.6772 15.2895 43.6024 14.8867C40.3702 14.137 39.3437 13.3762 39.3437 11.4853C39.3437 9.35941 41.1455 7.93843 43.8427 7.93843C45.983 7.93843 47.8612 9.12444 48.5054 10.9035L46.0485 11.5188C45.71 10.7468 44.8255 10.2209 43.8427 10.2209C42.7507 10.2209 42.0191 10.6797 42.0191 11.3398C42.0191 11.8209 42.5323 12.1119 44.1157 12.4811C47.8393 13.2755 49.0187 14.1482 49.0187 16.2293C49.0187 18.4895 46.9439 20 43.8427 20C40.8288 19.9888 38.754 18.2993 38.6667 15.793ZM61.4782 8.25172H58.8028V19.6643H61.4782V12.9063C61.4782 11.3734 62.6684 10.344 64.4483 10.344H65.3547V8.24054C65.0489 8.10627 64.5794 8.01676 64.1754 8.01676C63.1489 8.01676 62.0569 8.65452 61.4782 9.59438V8.25172ZM65.8898 13.958C65.8898 10.3441 68.3031 7.92728 71.9284 7.92728C75.5647 7.92728 77.9671 10.3441 77.9671 13.958V14.4839V14.7077H68.6088C68.849 16.5091 70.1922 17.7063 71.9284 17.7063C73.2388 17.7063 74.4728 16.9343 74.986 15.7818H77.705C76.9734 18.2993 74.6475 19.9888 71.9284 19.9888C68.3031 19.9888 65.8898 17.572 65.8898 13.958ZM75.0843 12.4252C74.571 11.0042 73.4354 10.2098 71.9394 10.2098C70.4433 10.2098 69.3077 11.0042 68.7944 12.4252H75.0843ZM85.3817 7.92728C81.8983 7.92728 79.5833 10.3441 79.5833 13.958C79.5833 17.572 81.9092 19.9888 85.3817 20C86.703 20 88.1444 19.3846 88.9962 18.4448V19.6755H91.6715V8.25176H88.9962V9.48252C88.1444 8.54267 86.6921 7.92728 85.3817 7.92728ZM85.338 10.3441C87.3363 10.3441 88.6795 11.7874 88.6795 13.958C88.6795 16.1287 87.3363 17.572 85.338 17.572C83.3179 17.572 81.9529 16.1287 81.9529 13.958C81.9529 11.7874 83.3069 10.3441 85.338 10.3441ZM93.2767 4H95.9521V12.1343L99.7194 8.25174H103.465L98.7366 12.9958L104 19.6643H100.571L96.8257 14.9091L95.9521 15.8042V19.6643H93.2767V4Z" fill="white"/>
</svg>
