<svg width="20" height="20" viewBox="0 0 20 20" fill="none" xmlns="http://www.w3.org/2000/svg">
<path d="M4.24587 4.87008C4.61081 5.35233 5.40584 6.27771 6.7483 6.91635C7.86919 7.43768 8.87277 7.52892 9.45928 7.52892C9.42018 6.1213 10.2543 4.85704 11.5186 4.3748C12.6264 3.94469 13.9168 4.19234 14.8291 5.01345C15.4417 5.00042 16.0543 4.97435 16.6668 4.96132C16.328 5.43053 15.9761 5.89972 15.6372 6.3559C16.3671 9.23631 15.559 12.2471 13.4866 14.0978C10.8278 16.483 6.50065 16.5872 3.3335 14.1109C3.5681 14.15 3.77665 14.163 3.97215 14.15C5.47101 14.0848 6.50068 12.8987 6.81348 12.4947C6.25304 12.0255 5.40584 11.1653 4.79327 9.86192C3.75058 7.65925 4.07643 5.613 4.24587 4.87008Z" stroke="#B5B3B1" stroke-linecap="round" stroke-linejoin="round"/>
</svg>
